<svg viewBox="0 0 860 700" xmlns="http://www.w3.org/2000/svg" font-family="ui-sans-serif, system-ui, sans-serif">
<rect x="0" y="0" width="860" height="700" fill="#ffffff"/>
<style>
.title{fill:#1b1b1b;font-size:17px;font-weight:700}
.bb{fill:#fbfbfa;stroke:#c9ced3;stroke-width:1.5}
.h{fill:#2b2f33}
.hg{fill:#e6eefb;stroke:#3b74c4;stroke-width:0.7}
.hr{fill:#fbe9e9;stroke:#c0392b;stroke-width:0.7}
.let{fill:#6b7280;font-size:11px;font-weight:700;font-family:ui-monospace,monospace}
.num{fill:#9aa1a8;font-size:9px;font-family:ui-monospace,monospace}
.brd{fill:#f4f4f5;stroke:#8a8a8a;stroke-width:1.5}
.bt{fill:#1b1b1b;font-size:14px;font-weight:700}
.bd{fill:#6b7280;font-size:11px}
.pin{fill:#1b1b1b;font-size:12px;font-family:ui-monospace,monospace;font-weight:600}
.sign{fill:#4b5563;font-size:9.5px}
.pinDot{fill:#f4f4f5;stroke:#8a8a8a;stroke-width:1.2}
.wD{stroke:#2563eb;stroke-width:3;fill:none;stroke-linecap:round;stroke-linejoin:round}
.wR{stroke:#15a34a;stroke-width:3;fill:none;stroke-linecap:round;stroke-linejoin:round}
.wG{stroke:#555555;stroke-width:3;fill:none;stroke-linecap:round;stroke-linejoin:round}
.dotB{fill:#2563eb}.dotG{fill:#15a34a}.dotK{fill:#555555}
.ringB{fill:none;stroke:#2563eb;stroke-width:2}
.note{fill:#6b7280;font-size:10.5px}
.lbl{fill:#4b5563;font-size:10.5px}
.lblB{fill:#1b1b1b;font-size:11px;font-weight:700}
</style>
<text x="430.0" y="30" text-anchor="middle" class="title">Cablaggio sulla tua breadboard</text>
<rect x="269" y="96" width="322" height="483" rx="8" class="bb"/>
<rect x="424.0" y="101" width="12" height="473" fill="#eef0f2"/>
<line x1="285" y1="114" x2="285" y2="561" stroke="#d24a4a" stroke-width="2" opacity="0.65"/>
<line x1="305" y1="114" x2="305" y2="561" stroke="#3b74c4" stroke-width="2" opacity="0.65"/>
<line x1="555" y1="114" x2="555" y2="561" stroke="#3b74c4" stroke-width="2" opacity="0.65"/>
<line x1="575" y1="114" x2="575" y2="561" stroke="#d24a4a" stroke-width="2" opacity="0.65"/>
<text x="285" y="110" text-anchor="middle" fill="#d24a4a" font-size="12" font-weight="700">+</text>
<text x="285" y="573" text-anchor="middle" fill="#d24a4a" font-size="12" font-weight="700">+</text>
<text x="305" y="110" text-anchor="middle" fill="#3b74c4" font-size="12" font-weight="700">−</text>
<text x="305" y="573" text-anchor="middle" fill="#3b74c4" font-size="12" font-weight="700">−</text>
<text x="555" y="110" text-anchor="middle" fill="#3b74c4" font-size="12" font-weight="700">−</text>
<text x="555" y="573" text-anchor="middle" fill="#3b74c4" font-size="12" font-weight="700">−</text>
<text x="575" y="110" text-anchor="middle" fill="#d24a4a" font-size="12" font-weight="700">+</text>
<text x="575" y="573" text-anchor="middle" fill="#d24a4a" font-size="12" font-weight="700">+</text>
<rect x="282" y="117" width="6" height="6" rx="1" class="hr"/>
<rect x="302" y="117" width="6" height="6" rx="1" class="hg"/>
<rect x="552" y="117" width="6" height="6" rx="1" class="hg"/>
<rect x="572" y="117" width="6" height="6" rx="1" class="hr"/>
<rect x="347" y="117" width="6" height="6" rx="1" class="h"/>
<rect x="363" y="117" width="6" height="6" rx="1" class="h"/>
<rect x="379" y="117" width="6" height="6" rx="1" class="h"/>
<rect x="395" y="117" width="6" height="6" rx="1" class="h"/>
<rect x="411" y="117" width="6" height="6" rx="1" class="h"/>
<rect x="443" y="117" width="6" height="6" rx="1" class="h"/>
<rect x="459" y="117" width="6" height="6" rx="1" class="h"/>
<rect x="475" y="117" width="6" height="6" rx="1" class="h"/>
<rect x="491" y="117" width="6" height="6" rx="1" class="h"/>
<rect x="507" y="117" width="6" height="6" rx="1" class="h"/>
<rect x="282" y="132" width="6" height="6" rx="1" class="hr"/>
<rect x="302" y="132" width="6" height="6" rx="1" class="hg"/>
<rect x="552" y="132" width="6" height="6" rx="1" class="hg"/>
<rect x="572" y="132" width="6" height="6" rx="1" class="hr"/>
<rect x="347" y="132" width="6" height="6" rx="1" class="h"/>
<rect x="363" y="132" width="6" height="6" rx="1" class="h"/>
<rect x="379" y="132" width="6" height="6" rx="1" class="h"/>
<rect x="395" y="132" width="6" height="6" rx="1" class="h"/>
<rect x="411" y="132" width="6" height="6" rx="1" class="h"/>
<rect x="443" y="132" width="6" height="6" rx="1" class="h"/>
<rect x="459" y="132" width="6" height="6" rx="1" class="h"/>
<rect x="475" y="132" width="6" height="6" rx="1" class="h"/>
<rect x="491" y="132" width="6" height="6" rx="1" class="h"/>
<rect x="507" y="132" width="6" height="6" rx="1" class="h"/>
<rect x="282" y="147" width="6" height="6" rx="1" class="hr"/>
<rect x="302" y="147" width="6" height="6" rx="1" class="hg"/>
<rect x="552" y="147" width="6" height="6" rx="1" class="hg"/>
<rect x="572" y="147" width="6" height="6" rx="1" class="hr"/>
<rect x="347" y="147" width="6" height="6" rx="1" class="h"/>
<rect x="363" y="147" width="6" height="6" rx="1" class="h"/>
<rect x="379" y="147" width="6" height="6" rx="1" class="h"/>
<rect x="395" y="147" width="6" height="6" rx="1" class="h"/>
<rect x="411" y="147" width="6" height="6" rx="1" class="h"/>
<rect x="443" y="147" width="6" height="6" rx="1" class="h"/>
<rect x="459" y="147" width="6" height="6" rx="1" class="h"/>
<rect x="475" y="147" width="6" height="6" rx="1" class="h"/>
<rect x="491" y="147" width="6" height="6" rx="1" class="h"/>
<rect x="507" y="147" width="6" height="6" rx="1" class="h"/>
<rect x="282" y="162" width="6" height="6" rx="1" class="hr"/>
<rect x="302" y="162" width="6" height="6" rx="1" class="hg"/>
<rect x="552" y="162" width="6" height="6" rx="1" class="hg"/>
<rect x="572" y="162" width="6" height="6" rx="1" class="hr"/>
<rect x="347" y="162" width="6" height="6" rx="1" class="h"/>
<rect x="363" y="162" width="6" height="6" rx="1" class="h"/>
<rect x="379" y="162" width="6" height="6" rx="1" class="h"/>
<rect x="395" y="162" width="6" height="6" rx="1" class="h"/>
<rect x="411" y="162" width="6" height="6" rx="1" class="h"/>
<rect x="443" y="162" width="6" height="6" rx="1" class="h"/>
<rect x="459" y="162" width="6" height="6" rx="1" class="h"/>
<rect x="475" y="162" width="6" height="6" rx="1" class="h"/>
<rect x="491" y="162" width="6" height="6" rx="1" class="h"/>
<rect x="507" y="162" width="6" height="6" rx="1" class="h"/>
<rect x="282" y="177" width="6" height="6" rx="1" class="hr"/>
<rect x="302" y="177" width="6" height="6" rx="1" class="hg"/>
<rect x="552" y="177" width="6" height="6" rx="1" class="hg"/>
<rect x="572" y="177" width="6" height="6" rx="1" class="hr"/>
<rect x="347" y="177" width="6" height="6" rx="1" class="h"/>
<rect x="363" y="177" width="6" height="6" rx="1" class="h"/>
<rect x="379" y="177" width="6" height="6" rx="1" class="h"/>
<rect x="395" y="177" width="6" height="6" rx="1" class="h"/>
<rect x="411" y="177" width="6" height="6" rx="1" class="h"/>
<rect x="443" y="177" width="6" height="6" rx="1" class="h"/>
<rect x="459" y="177" width="6" height="6" rx="1" class="h"/>
<rect x="475" y="177" width="6" height="6" rx="1" class="h"/>
<rect x="491" y="177" width="6" height="6" rx="1" class="h"/>
<rect x="507" y="177" width="6" height="6" rx="1" class="h"/>
<rect x="282" y="192" width="6" height="6" rx="1" class="hr"/>
<rect x="302" y="192" width="6" height="6" rx="1" class="hg"/>
<rect x="552" y="192" width="6" height="6" rx="1" class="hg"/>
<rect x="572" y="192" width="6" height="6" rx="1" class="hr"/>
<rect x="347" y="192" width="6" height="6" rx="1" class="h"/>
<rect x="363" y="192" width="6" height="6" rx="1" class="h"/>
<rect x="379" y="192" width="6" height="6" rx="1" class="h"/>
<rect x="395" y="192" width="6" height="6" rx="1" class="h"/>
<rect x="411" y="192" width="6" height="6" rx="1" class="h"/>
<rect x="443" y="192" width="6" height="6" rx="1" class="h"/>
<rect x="459" y="192" width="6" height="6" rx="1" class="h"/>
<rect x="475" y="192" width="6" height="6" rx="1" class="h"/>
<rect x="491" y="192" width="6" height="6" rx="1" class="h"/>
<rect x="507" y="192" width="6" height="6" rx="1" class="h"/>
<rect x="282" y="207" width="6" height="6" rx="1" class="hr"/>
<rect x="302" y="207" width="6" height="6" rx="1" class="hg"/>
<rect x="552" y="207" width="6" height="6" rx="1" class="hg"/>
<rect x="572" y="207" width="6" height="6" rx="1" class="hr"/>
<rect x="347" y="207" width="6" height="6" rx="1" class="h"/>
<rect x="363" y="207" width="6" height="6" rx="1" class="h"/>
<rect x="379" y="207" width="6" height="6" rx="1" class="h"/>
<rect x="395" y="207" width="6" height="6" rx="1" class="h"/>
<rect x="411" y="207" width="6" height="6" rx="1" class="h"/>
<rect x="443" y="207" width="6" height="6" rx="1" class="h"/>
<rect x="459" y="207" width="6" height="6" rx="1" class="h"/>
<rect x="475" y="207" width="6" height="6" rx="1" class="h"/>
<rect x="491" y="207" width="6" height="6" rx="1" class="h"/>
<rect x="507" y="207" width="6" height="6" rx="1" class="h"/>
<rect x="282" y="222" width="6" height="6" rx="1" class="hr"/>
<rect x="302" y="222" width="6" height="6" rx="1" class="hg"/>
<rect x="552" y="222" width="6" height="6" rx="1" class="hg"/>
<rect x="572" y="222" width="6" height="6" rx="1" class="hr"/>
<rect x="347" y="222" width="6" height="6" rx="1" class="h"/>
<rect x="363" y="222" width="6" height="6" rx="1" class="h"/>
<rect x="379" y="222" width="6" height="6" rx="1" class="h"/>
<rect x="395" y="222" width="6" height="6" rx="1" class="h"/>
<rect x="411" y="222" width="6" height="6" rx="1" class="h"/>
<rect x="443" y="222" width="6" height="6" rx="1" class="h"/>
<rect x="459" y="222" width="6" height="6" rx="1" class="h"/>
<rect x="475" y="222" width="6" height="6" rx="1" class="h"/>
<rect x="491" y="222" width="6" height="6" rx="1" class="h"/>
<rect x="507" y="222" width="6" height="6" rx="1" class="h"/>
<rect x="282" y="237" width="6" height="6" rx="1" class="hr"/>
<rect x="302" y="237" width="6" height="6" rx="1" class="hg"/>
<rect x="552" y="237" width="6" height="6" rx="1" class="hg"/>
<rect x="572" y="237" width="6" height="6" rx="1" class="hr"/>
<rect x="347" y="237" width="6" height="6" rx="1" class="h"/>
<rect x="363" y="237" width="6" height="6" rx="1" class="h"/>
<rect x="379" y="237" width="6" height="6" rx="1" class="h"/>
<rect x="395" y="237" width="6" height="6" rx="1" class="h"/>
<rect x="411" y="237" width="6" height="6" rx="1" class="h"/>
<rect x="443" y="237" width="6" height="6" rx="1" class="h"/>
<rect x="459" y="237" width="6" height="6" rx="1" class="h"/>
<rect x="475" y="237" width="6" height="6" rx="1" class="h"/>
<rect x="491" y="237" width="6" height="6" rx="1" class="h"/>
<rect x="507" y="237" width="6" height="6" rx="1" class="h"/>
<rect x="282" y="252" width="6" height="6" rx="1" class="hr"/>
<rect x="302" y="252" width="6" height="6" rx="1" class="hg"/>
<rect x="552" y="252" width="6" height="6" rx="1" class="hg"/>
<rect x="572" y="252" width="6" height="6" rx="1" class="hr"/>
<rect x="347" y="252" width="6" height="6" rx="1" class="h"/>
<rect x="363" y="252" width="6" height="6" rx="1" class="h"/>
<rect x="379" y="252" width="6" height="6" rx="1" class="h"/>
<rect x="395" y="252" width="6" height="6" rx="1" class="h"/>
<rect x="411" y="252" width="6" height="6" rx="1" class="h"/>
<rect x="443" y="252" width="6" height="6" rx="1" class="h"/>
<rect x="459" y="252" width="6" height="6" rx="1" class="h"/>
<rect x="475" y="252" width="6" height="6" rx="1" class="h"/>
<rect x="491" y="252" width="6" height="6" rx="1" class="h"/>
<rect x="507" y="252" width="6" height="6" rx="1" class="h"/>
<rect x="282" y="267" width="6" height="6" rx="1" class="hr"/>
<rect x="302" y="267" width="6" height="6" rx="1" class="hg"/>
<rect x="552" y="267" width="6" height="6" rx="1" class="hg"/>
<rect x="572" y="267" width="6" height="6" rx="1" class="hr"/>
<rect x="347" y="267" width="6" height="6" rx="1" class="h"/>
<rect x="363" y="267" width="6" height="6" rx="1" class="h"/>
<rect x="379" y="267" width="6" height="6" rx="1" class="h"/>
<rect x="395" y="267" width="6" height="6" rx="1" class="h"/>
<rect x="411" y="267" width="6" height="6" rx="1" class="h"/>
<rect x="443" y="267" width="6" height="6" rx="1" class="h"/>
<rect x="459" y="267" width="6" height="6" rx="1" class="h"/>
<rect x="475" y="267" width="6" height="6" rx="1" class="h"/>
<rect x="491" y="267" width="6" height="6" rx="1" class="h"/>
<rect x="507" y="267" width="6" height="6" rx="1" class="h"/>
<rect x="282" y="282" width="6" height="6" rx="1" class="hr"/>
<rect x="302" y="282" width="6" height="6" rx="1" class="hg"/>
<rect x="552" y="282" width="6" height="6" rx="1" class="hg"/>
<rect x="572" y="282" width="6" height="6" rx="1" class="hr"/>
<rect x="347" y="282" width="6" height="6" rx="1" class="h"/>
<rect x="363" y="282" width="6" height="6" rx="1" class="h"/>
<rect x="379" y="282" width="6" height="6" rx="1" class="h"/>
<rect x="395" y="282" width="6" height="6" rx="1" class="h"/>
<rect x="411" y="282" width="6" height="6" rx="1" class="h"/>
<rect x="443" y="282" width="6" height="6" rx="1" class="h"/>
<rect x="459" y="282" width="6" height="6" rx="1" class="h"/>
<rect x="475" y="282" width="6" height="6" rx="1" class="h"/>
<rect x="491" y="282" width="6" height="6" rx="1" class="h"/>
<rect x="507" y="282" width="6" height="6" rx="1" class="h"/>
<rect x="282" y="297" width="6" height="6" rx="1" class="hr"/>
<rect x="302" y="297" width="6" height="6" rx="1" class="hg"/>
<rect x="552" y="297" width="6" height="6" rx="1" class="hg"/>
<rect x="572" y="297" width="6" height="6" rx="1" class="hr"/>
<rect x="347" y="297" width="6" height="6" rx="1" class="h"/>
<rect x="363" y="297" width="6" height="6" rx="1" class="h"/>
<rect x="379" y="297" width="6" height="6" rx="1" class="h"/>
<rect x="395" y="297" width="6" height="6" rx="1" class="h"/>
<rect x="411" y="297" width="6" height="6" rx="1" class="h"/>
<rect x="443" y="297" width="6" height="6" rx="1" class="h"/>
<rect x="459" y="297" width="6" height="6" rx="1" class="h"/>
<rect x="475" y="297" width="6" height="6" rx="1" class="h"/>
<rect x="491" y="297" width="6" height="6" rx="1" class="h"/>
<rect x="507" y="297" width="6" height="6" rx="1" class="h"/>
<rect x="282" y="312" width="6" height="6" rx="1" class="hr"/>
<rect x="302" y="312" width="6" height="6" rx="1" class="hg"/>
<rect x="552" y="312" width="6" height="6" rx="1" class="hg"/>
<rect x="572" y="312" width="6" height="6" rx="1" class="hr"/>
<rect x="347" y="312" width="6" height="6" rx="1" class="h"/>
<rect x="363" y="312" width="6" height="6" rx="1" class="h"/>
<rect x="379" y="312" width="6" height="6" rx="1" class="h"/>
<rect x="395" y="312" width="6" height="6" rx="1" class="h"/>
<rect x="411" y="312" width="6" height="6" rx="1" class="h"/>
<rect x="443" y="312" width="6" height="6" rx="1" class="h"/>
<rect x="459" y="312" width="6" height="6" rx="1" class="h"/>
<rect x="475" y="312" width="6" height="6" rx="1" class="h"/>
<rect x="491" y="312" width="6" height="6" rx="1" class="h"/>
<rect x="507" y="312" width="6" height="6" rx="1" class="h"/>
<rect x="282" y="327" width="6" height="6" rx="1" class="hr"/>
<rect x="302" y="327" width="6" height="6" rx="1" class="hg"/>
<rect x="552" y="327" width="6" height="6" rx="1" class="hg"/>
<rect x="572" y="327" width="6" height="6" rx="1" class="hr"/>
<rect x="347" y="327" width="6" height="6" rx="1" class="h"/>
<rect x="363" y="327" width="6" height="6" rx="1" class="h"/>
<rect x="379" y="327" width="6" height="6" rx="1" class="h"/>
<rect x="395" y="327" width="6" height="6" rx="1" class="h"/>
<rect x="411" y="327" width="6" height="6" rx="1" class="h"/>
<rect x="443" y="327" width="6" height="6" rx="1" class="h"/>
<rect x="459" y="327" width="6" height="6" rx="1" class="h"/>
<rect x="475" y="327" width="6" height="6" rx="1" class="h"/>
<rect x="491" y="327" width="6" height="6" rx="1" class="h"/>
<rect x="507" y="327" width="6" height="6" rx="1" class="h"/>
<rect x="282" y="342" width="6" height="6" rx="1" class="hr"/>
<rect x="302" y="342" width="6" height="6" rx="1" class="hg"/>
<rect x="552" y="342" width="6" height="6" rx="1" class="hg"/>
<rect x="572" y="342" width="6" height="6" rx="1" class="hr"/>
<rect x="347" y="342" width="6" height="6" rx="1" class="h"/>
<rect x="363" y="342" width="6" height="6" rx="1" class="h"/>
<rect x="379" y="342" width="6" height="6" rx="1" class="h"/>
<rect x="395" y="342" width="6" height="6" rx="1" class="h"/>
<rect x="411" y="342" width="6" height="6" rx="1" class="h"/>
<rect x="443" y="342" width="6" height="6" rx="1" class="h"/>
<rect x="459" y="342" width="6" height="6" rx="1" class="h"/>
<rect x="475" y="342" width="6" height="6" rx="1" class="h"/>
<rect x="491" y="342" width="6" height="6" rx="1" class="h"/>
<rect x="507" y="342" width="6" height="6" rx="1" class="h"/>
<rect x="282" y="357" width="6" height="6" rx="1" class="hr"/>
<rect x="302" y="357" width="6" height="6" rx="1" class="hg"/>
<rect x="552" y="357" width="6" height="6" rx="1" class="hg"/>
<rect x="572" y="357" width="6" height="6" rx="1" class="hr"/>
<rect x="347" y="357" width="6" height="6" rx="1" class="h"/>
<rect x="363" y="357" width="6" height="6" rx="1" class="h"/>
<rect x="379" y="357" width="6" height="6" rx="1" class="h"/>
<rect x="395" y="357" width="6" height="6" rx="1" class="h"/>
<rect x="411" y="357" width="6" height="6" rx="1" class="h"/>
<rect x="443" y="357" width="6" height="6" rx="1" class="h"/>
<rect x="459" y="357" width="6" height="6" rx="1" class="h"/>
<rect x="475" y="357" width="6" height="6" rx="1" class="h"/>
<rect x="491" y="357" width="6" height="6" rx="1" class="h"/>
<rect x="507" y="357" width="6" height="6" rx="1" class="h"/>
<rect x="282" y="372" width="6" height="6" rx="1" class="hr"/>
<rect x="302" y="372" width="6" height="6" rx="1" class="hg"/>
<rect x="552" y="372" width="6" height="6" rx="1" class="hg"/>
<rect x="572" y="372" width="6" height="6" rx="1" class="hr"/>
<rect x="347" y="372" width="6" height="6" rx="1" class="h"/>
<rect x="363" y="372" width="6" height="6" rx="1" class="h"/>
<rect x="379" y="372" width="6" height="6" rx="1" class="h"/>
<rect x="395" y="372" width="6" height="6" rx="1" class="h"/>
<rect x="411" y="372" width="6" height="6" rx="1" class="h"/>
<rect x="443" y="372" width="6" height="6" rx="1" class="h"/>
<rect x="459" y="372" width="6" height="6" rx="1" class="h"/>
<rect x="475" y="372" width="6" height="6" rx="1" class="h"/>
<rect x="491" y="372" width="6" height="6" rx="1" class="h"/>
<rect x="507" y="372" width="6" height="6" rx="1" class="h"/>
<rect x="282" y="387" width="6" height="6" rx="1" class="hr"/>
<rect x="302" y="387" width="6" height="6" rx="1" class="hg"/>
<rect x="552" y="387" width="6" height="6" rx="1" class="hg"/>
<rect x="572" y="387" width="6" height="6" rx="1" class="hr"/>
<rect x="347" y="387" width="6" height="6" rx="1" class="h"/>
<rect x="363" y="387" width="6" height="6" rx="1" class="h"/>
<rect x="379" y="387" width="6" height="6" rx="1" class="h"/>
<rect x="395" y="387" width="6" height="6" rx="1" class="h"/>
<rect x="411" y="387" width="6" height="6" rx="1" class="h"/>
<rect x="443" y="387" width="6" height="6" rx="1" class="h"/>
<rect x="459" y="387" width="6" height="6" rx="1" class="h"/>
<rect x="475" y="387" width="6" height="6" rx="1" class="h"/>
<rect x="491" y="387" width="6" height="6" rx="1" class="h"/>
<rect x="507" y="387" width="6" height="6" rx="1" class="h"/>
<rect x="282" y="402" width="6" height="6" rx="1" class="hr"/>
<rect x="302" y="402" width="6" height="6" rx="1" class="hg"/>
<rect x="552" y="402" width="6" height="6" rx="1" class="hg"/>
<rect x="572" y="402" width="6" height="6" rx="1" class="hr"/>
<rect x="347" y="402" width="6" height="6" rx="1" class="h"/>
<rect x="363" y="402" width="6" height="6" rx="1" class="h"/>
<rect x="379" y="402" width="6" height="6" rx="1" class="h"/>
<rect x="395" y="402" width="6" height="6" rx="1" class="h"/>
<rect x="411" y="402" width="6" height="6" rx="1" class="h"/>
<rect x="443" y="402" width="6" height="6" rx="1" class="h"/>
<rect x="459" y="402" width="6" height="6" rx="1" class="h"/>
<rect x="475" y="402" width="6" height="6" rx="1" class="h"/>
<rect x="491" y="402" width="6" height="6" rx="1" class="h"/>
<rect x="507" y="402" width="6" height="6" rx="1" class="h"/>
<rect x="282" y="417" width="6" height="6" rx="1" class="hr"/>
<rect x="302" y="417" width="6" height="6" rx="1" class="hg"/>
<rect x="552" y="417" width="6" height="6" rx="1" class="hg"/>
<rect x="572" y="417" width="6" height="6" rx="1" class="hr"/>
<rect x="347" y="417" width="6" height="6" rx="1" class="h"/>
<rect x="363" y="417" width="6" height="6" rx="1" class="h"/>
<rect x="379" y="417" width="6" height="6" rx="1" class="h"/>
<rect x="395" y="417" width="6" height="6" rx="1" class="h"/>
<rect x="411" y="417" width="6" height="6" rx="1" class="h"/>
<rect x="443" y="417" width="6" height="6" rx="1" class="h"/>
<rect x="459" y="417" width="6" height="6" rx="1" class="h"/>
<rect x="475" y="417" width="6" height="6" rx="1" class="h"/>
<rect x="491" y="417" width="6" height="6" rx="1" class="h"/>
<rect x="507" y="417" width="6" height="6" rx="1" class="h"/>
<rect x="282" y="432" width="6" height="6" rx="1" class="hr"/>
<rect x="302" y="432" width="6" height="6" rx="1" class="hg"/>
<rect x="552" y="432" width="6" height="6" rx="1" class="hg"/>
<rect x="572" y="432" width="6" height="6" rx="1" class="hr"/>
<rect x="347" y="432" width="6" height="6" rx="1" class="h"/>
<rect x="363" y="432" width="6" height="6" rx="1" class="h"/>
<rect x="379" y="432" width="6" height="6" rx="1" class="h"/>
<rect x="395" y="432" width="6" height="6" rx="1" class="h"/>
<rect x="411" y="432" width="6" height="6" rx="1" class="h"/>
<rect x="443" y="432" width="6" height="6" rx="1" class="h"/>
<rect x="459" y="432" width="6" height="6" rx="1" class="h"/>
<rect x="475" y="432" width="6" height="6" rx="1" class="h"/>
<rect x="491" y="432" width="6" height="6" rx="1" class="h"/>
<rect x="507" y="432" width="6" height="6" rx="1" class="h"/>
<rect x="282" y="447" width="6" height="6" rx="1" class="hr"/>
<rect x="302" y="447" width="6" height="6" rx="1" class="hg"/>
<rect x="552" y="447" width="6" height="6" rx="1" class="hg"/>
<rect x="572" y="447" width="6" height="6" rx="1" class="hr"/>
<rect x="347" y="447" width="6" height="6" rx="1" class="h"/>
<rect x="363" y="447" width="6" height="6" rx="1" class="h"/>
<rect x="379" y="447" width="6" height="6" rx="1" class="h"/>
<rect x="395" y="447" width="6" height="6" rx="1" class="h"/>
<rect x="411" y="447" width="6" height="6" rx="1" class="h"/>
<rect x="443" y="447" width="6" height="6" rx="1" class="h"/>
<rect x="459" y="447" width="6" height="6" rx="1" class="h"/>
<rect x="475" y="447" width="6" height="6" rx="1" class="h"/>
<rect x="491" y="447" width="6" height="6" rx="1" class="h"/>
<rect x="507" y="447" width="6" height="6" rx="1" class="h"/>
<rect x="282" y="462" width="6" height="6" rx="1" class="hr"/>
<rect x="302" y="462" width="6" height="6" rx="1" class="hg"/>
<rect x="552" y="462" width="6" height="6" rx="1" class="hg"/>
<rect x="572" y="462" width="6" height="6" rx="1" class="hr"/>
<rect x="347" y="462" width="6" height="6" rx="1" class="h"/>
<rect x="363" y="462" width="6" height="6" rx="1" class="h"/>
<rect x="379" y="462" width="6" height="6" rx="1" class="h"/>
<rect x="395" y="462" width="6" height="6" rx="1" class="h"/>
<rect x="411" y="462" width="6" height="6" rx="1" class="h"/>
<rect x="443" y="462" width="6" height="6" rx="1" class="h"/>
<rect x="459" y="462" width="6" height="6" rx="1" class="h"/>
<rect x="475" y="462" width="6" height="6" rx="1" class="h"/>
<rect x="491" y="462" width="6" height="6" rx="1" class="h"/>
<rect x="507" y="462" width="6" height="6" rx="1" class="h"/>
<rect x="282" y="477" width="6" height="6" rx="1" class="hr"/>
<rect x="302" y="477" width="6" height="6" rx="1" class="hg"/>
<rect x="552" y="477" width="6" height="6" rx="1" class="hg"/>
<rect x="572" y="477" width="6" height="6" rx="1" class="hr"/>
<rect x="347" y="477" width="6" height="6" rx="1" class="h"/>
<rect x="363" y="477" width="6" height="6" rx="1" class="h"/>
<rect x="379" y="477" width="6" height="6" rx="1" class="h"/>
<rect x="395" y="477" width="6" height="6" rx="1" class="h"/>
<rect x="411" y="477" width="6" height="6" rx="1" class="h"/>
<rect x="443" y="477" width="6" height="6" rx="1" class="h"/>
<rect x="459" y="477" width="6" height="6" rx="1" class="h"/>
<rect x="475" y="477" width="6" height="6" rx="1" class="h"/>
<rect x="491" y="477" width="6" height="6" rx="1" class="h"/>
<rect x="507" y="477" width="6" height="6" rx="1" class="h"/>
<rect x="282" y="492" width="6" height="6" rx="1" class="hr"/>
<rect x="302" y="492" width="6" height="6" rx="1" class="hg"/>
<rect x="552" y="492" width="6" height="6" rx="1" class="hg"/>
<rect x="572" y="492" width="6" height="6" rx="1" class="hr"/>
<rect x="347" y="492" width="6" height="6" rx="1" class="h"/>
<rect x="363" y="492" width="6" height="6" rx="1" class="h"/>
<rect x="379" y="492" width="6" height="6" rx="1" class="h"/>
<rect x="395" y="492" width="6" height="6" rx="1" class="h"/>
<rect x="411" y="492" width="6" height="6" rx="1" class="h"/>
<rect x="443" y="492" width="6" height="6" rx="1" class="h"/>
<rect x="459" y="492" width="6" height="6" rx="1" class="h"/>
<rect x="475" y="492" width="6" height="6" rx="1" class="h"/>
<rect x="491" y="492" width="6" height="6" rx="1" class="h"/>
<rect x="507" y="492" width="6" height="6" rx="1" class="h"/>
<rect x="282" y="507" width="6" height="6" rx="1" class="hr"/>
<rect x="302" y="507" width="6" height="6" rx="1" class="hg"/>
<rect x="552" y="507" width="6" height="6" rx="1" class="hg"/>
<rect x="572" y="507" width="6" height="6" rx="1" class="hr"/>
<rect x="347" y="507" width="6" height="6" rx="1" class="h"/>
<rect x="363" y="507" width="6" height="6" rx="1" class="h"/>
<rect x="379" y="507" width="6" height="6" rx="1" class="h"/>
<rect x="395" y="507" width="6" height="6" rx="1" class="h"/>
<rect x="411" y="507" width="6" height="6" rx="1" class="h"/>
<rect x="443" y="507" width="6" height="6" rx="1" class="h"/>
<rect x="459" y="507" width="6" height="6" rx="1" class="h"/>
<rect x="475" y="507" width="6" height="6" rx="1" class="h"/>
<rect x="491" y="507" width="6" height="6" rx="1" class="h"/>
<rect x="507" y="507" width="6" height="6" rx="1" class="h"/>
<rect x="282" y="522" width="6" height="6" rx="1" class="hr"/>
<rect x="302" y="522" width="6" height="6" rx="1" class="hg"/>
<rect x="552" y="522" width="6" height="6" rx="1" class="hg"/>
<rect x="572" y="522" width="6" height="6" rx="1" class="hr"/>
<rect x="347" y="522" width="6" height="6" rx="1" class="h"/>
<rect x="363" y="522" width="6" height="6" rx="1" class="h"/>
<rect x="379" y="522" width="6" height="6" rx="1" class="h"/>
<rect x="395" y="522" width="6" height="6" rx="1" class="h"/>
<rect x="411" y="522" width="6" height="6" rx="1" class="h"/>
<rect x="443" y="522" width="6" height="6" rx="1" class="h"/>
<rect x="459" y="522" width="6" height="6" rx="1" class="h"/>
<rect x="475" y="522" width="6" height="6" rx="1" class="h"/>
<rect x="491" y="522" width="6" height="6" rx="1" class="h"/>
<rect x="507" y="522" width="6" height="6" rx="1" class="h"/>
<rect x="282" y="537" width="6" height="6" rx="1" class="hr"/>
<rect x="302" y="537" width="6" height="6" rx="1" class="hg"/>
<rect x="552" y="537" width="6" height="6" rx="1" class="hg"/>
<rect x="572" y="537" width="6" height="6" rx="1" class="hr"/>
<rect x="347" y="537" width="6" height="6" rx="1" class="h"/>
<rect x="363" y="537" width="6" height="6" rx="1" class="h"/>
<rect x="379" y="537" width="6" height="6" rx="1" class="h"/>
<rect x="395" y="537" width="6" height="6" rx="1" class="h"/>
<rect x="411" y="537" width="6" height="6" rx="1" class="h"/>
<rect x="443" y="537" width="6" height="6" rx="1" class="h"/>
<rect x="459" y="537" width="6" height="6" rx="1" class="h"/>
<rect x="475" y="537" width="6" height="6" rx="1" class="h"/>
<rect x="491" y="537" width="6" height="6" rx="1" class="h"/>
<rect x="507" y="537" width="6" height="6" rx="1" class="h"/>
<rect x="282" y="552" width="6" height="6" rx="1" class="hr"/>
<rect x="302" y="552" width="6" height="6" rx="1" class="hg"/>
<rect x="552" y="552" width="6" height="6" rx="1" class="hg"/>
<rect x="572" y="552" width="6" height="6" rx="1" class="hr"/>
<rect x="347" y="552" width="6" height="6" rx="1" class="h"/>
<rect x="363" y="552" width="6" height="6" rx="1" class="h"/>
<rect x="379" y="552" width="6" height="6" rx="1" class="h"/>
<rect x="395" y="552" width="6" height="6" rx="1" class="h"/>
<rect x="411" y="552" width="6" height="6" rx="1" class="h"/>
<rect x="443" y="552" width="6" height="6" rx="1" class="h"/>
<rect x="459" y="552" width="6" height="6" rx="1" class="h"/>
<rect x="475" y="552" width="6" height="6" rx="1" class="h"/>
<rect x="491" y="552" width="6" height="6" rx="1" class="h"/>
<rect x="507" y="552" width="6" height="6" rx="1" class="h"/>
<text x="350" y="110" text-anchor="middle" class="let">a</text>
<text x="350" y="573" text-anchor="middle" class="let">a</text>
<text x="366" y="110" text-anchor="middle" class="let">b</text>
<text x="366" y="573" text-anchor="middle" class="let">b</text>
<text x="382" y="110" text-anchor="middle" class="let">c</text>
<text x="382" y="573" text-anchor="middle" class="let">c</text>
<text x="398" y="110" text-anchor="middle" class="let">d</text>
<text x="398" y="573" text-anchor="middle" class="let">d</text>
<text x="414" y="110" text-anchor="middle" class="let">e</text>
<text x="414" y="573" text-anchor="middle" class="let">e</text>
<text x="446" y="110" text-anchor="middle" class="let">f</text>
<text x="446" y="573" text-anchor="middle" class="let">f</text>
<text x="462" y="110" text-anchor="middle" class="let">g</text>
<text x="462" y="573" text-anchor="middle" class="let">g</text>
<text x="478" y="110" text-anchor="middle" class="let">h</text>
<text x="478" y="573" text-anchor="middle" class="let">h</text>
<text x="494" y="110" text-anchor="middle" class="let">i</text>
<text x="494" y="573" text-anchor="middle" class="let">i</text>
<text x="510" y="110" text-anchor="middle" class="let">j</text>
<text x="510" y="573" text-anchor="middle" class="let">j</text>
<text x="335" y="123" text-anchor="end" class="num">1</text>
<text x="525" y="123" class="num">1</text>
<text x="335" y="138" text-anchor="end" class="num">2</text>
<text x="525" y="138" class="num">2</text>
<text x="335" y="153" text-anchor="end" class="num">3</text>
<text x="525" y="153" class="num">3</text>
<text x="335" y="168" text-anchor="end" class="num">4</text>
<text x="525" y="168" class="num">4</text>
<text x="335" y="183" text-anchor="end" class="num">5</text>
<text x="525" y="183" class="num">5</text>
<text x="335" y="198" text-anchor="end" class="num">6</text>
<text x="525" y="198" class="num">6</text>
<text x="335" y="213" text-anchor="end" class="num">7</text>
<text x="525" y="213" class="num">7</text>
<text x="335" y="228" text-anchor="end" class="num">8</text>
<text x="525" y="228" class="num">8</text>
<text x="335" y="243" text-anchor="end" class="num">9</text>
<text x="525" y="243" class="num">9</text>
<text x="335" y="258" text-anchor="end" class="num">10</text>
<text x="525" y="258" class="num">10</text>
<text x="335" y="273" text-anchor="end" class="num">11</text>
<text x="525" y="273" class="num">11</text>
<text x="335" y="288" text-anchor="end" class="num">12</text>
<text x="525" y="288" class="num">12</text>
<text x="335" y="303" text-anchor="end" class="num">13</text>
<text x="525" y="303" class="num">13</text>
<text x="335" y="318" text-anchor="end" class="num">14</text>
<text x="525" y="318" class="num">14</text>
<text x="335" y="333" text-anchor="end" class="num">15</text>
<text x="525" y="333" class="num">15</text>
<text x="335" y="348" text-anchor="end" class="num">16</text>
<text x="525" y="348" class="num">16</text>
<text x="335" y="363" text-anchor="end" class="num">17</text>
<text x="525" y="363" class="num">17</text>
<text x="335" y="378" text-anchor="end" class="num">18</text>
<text x="525" y="378" class="num">18</text>
<text x="335" y="393" text-anchor="end" class="num">19</text>
<text x="525" y="393" class="num">19</text>
<text x="335" y="408" text-anchor="end" class="num">20</text>
<text x="525" y="408" class="num">20</text>
<text x="335" y="423" text-anchor="end" class="num">21</text>
<text x="525" y="423" class="num">21</text>
<text x="335" y="438" text-anchor="end" class="num">22</text>
<text x="525" y="438" class="num">22</text>
<text x="335" y="453" text-anchor="end" class="num">23</text>
<text x="525" y="453" class="num">23</text>
<text x="335" y="468" text-anchor="end" class="num">24</text>
<text x="525" y="468" class="num">24</text>
<text x="335" y="483" text-anchor="end" class="num">25</text>
<text x="525" y="483" class="num">25</text>
<text x="335" y="498" text-anchor="end" class="num">26</text>
<text x="525" y="498" class="num">26</text>
<text x="335" y="513" text-anchor="end" class="num">27</text>
<text x="525" y="513" class="num">27</text>
<text x="335" y="528" text-anchor="end" class="num">28</text>
<text x="525" y="528" class="num">28</text>
<text x="335" y="543" text-anchor="end" class="num">29</text>
<text x="525" y="543" class="num">29</text>
<text x="335" y="558" text-anchor="end" class="num">30</text>
<text x="525" y="558" class="num">30</text>
<rect x="60" y="100" width="175" height="395" rx="12" class="brd"/>
<text x="147" y="128" text-anchor="middle" class="bt">Arduino</text>
<text x="147" y="145" text-anchor="middle" class="bd">Uno · 5 V</text>
<circle cx="235" cy="180" r="4" class="pinDot"/>
<text x="226" y="184" text-anchor="end" class="pin">D8</text>
<circle cx="235" cy="225" r="4" class="pinDot"/>
<text x="226" y="229" text-anchor="end" class="pin">D2</text>
<circle cx="235" cy="255" r="4" class="pinDot"/>
<text x="226" y="259" text-anchor="end" class="pin">A0</text>
<circle cx="235" cy="460" r="4" class="pinDot"/>
<text x="226" y="464" text-anchor="end" class="pin">GND</text>
<rect x="625" y="100" width="175" height="395" rx="12" class="brd"/>
<text x="712" y="128" text-anchor="middle" class="bt">NUCLEO-H755ZI-Q</text>
<text x="712" y="145" text-anchor="middle" class="bd">3,3 V</text>
<circle cx="625" cy="180" r="4" class="pinDot"/>
<text x="634" y="184" class="pin">PE13</text>
<circle cx="625" cy="225" r="4" class="pinDot"/>
<text x="634" y="229" class="pin">PG14</text>
<circle cx="625" cy="255" r="4" class="pinDot"/>
<text x="634" y="259" class="pin">PA4</text>
<circle cx="625" cy="460" r="4" class="pinDot"/>
<text x="634" y="464" class="pin">GND</text>
<text x="634" y="196" class="sign">= Arduino D3 (Zio)</text>
<path class="wR" d="M235 225 H262 V85 H598 V225 H625"/>
<path class="wR" d="M235 255 H272 V70 H588 V255 H625"/>
<text x="430" y="80" text-anchor="middle" class="lbl">monitor PG14→D2 · PA4→A0 (jumper diretti)</text>
<path class="wD" d="M235 180 H350"/>
<path class="wD" d="M510 180 H625"/>
<line x1="414" y1="180" x2="419" y2="180" class="wD"/>
<rect x="419" y="173" width="22" height="14" rx="3" fill="#d8b98a" stroke="#b08c5a"/>
<rect x="423" y="173" width="3" height="14" fill="#8a5a2b"/>
<rect x="429.0" y="173" width="3" height="14" fill="#c0392b"/>
<rect x="438" y="173" width="3" height="14" fill="#b8860b"/>
<line x1="441" y1="180" x2="446" y2="180" class="wD"/>
<text x="430.0" y="168" text-anchor="middle" class="lblB">1 kΩ</text>
<circle cx="350" cy="180" r="6.5" class="ringB"/>
<circle cx="414" cy="180" r="6.5" class="ringB"/>
<circle cx="446" cy="180" r="6.5" class="ringB"/>
<circle cx="510" cy="180" r="6.5" class="ringB"/>
<circle cx="235" cy="180" r="3" class="dotB"/>
<circle cx="625" cy="180" r="3" class="dotB"/>
<path class="wG" d="M235 460 H305 V465"/>
<circle cx="305" cy="465" r="5" class="ringB" stroke="#555"/>
<path class="wG" d="M625 460 H555 V465"/>
<circle cx="555" cy="465" r="5" class="ringB" stroke="#555"/>
<path class="wG" d="M305 561 V597 H555 V561"/>
<text x="430.0" y="612" text-anchor="middle" class="lbl">ponticello −↔− : massa comune</text>
<circle cx="235" cy="460" r="3" class="dotK"/><circle cx="625" cy="460" r="3" class="dotK"/>
<line x1="120" y1="660" x2="150" y2="660" class="wD"/><text x="156" y="664" class="note">trigger D8→[1kΩ]→PE13</text>
<line x1="330" y1="660" x2="360" y2="660" class="wR"/><text x="366" y="664" class="note">monitor (diretti)</text>
<line x1="520" y1="660" x2="550" y2="660" class="wG"/><text x="556" y="664" class="note">GND su rail −</text>
<text x="430.0" y="682" text-anchor="middle" class="note">Trigger: D8→a5 · R 1kΩ tra e5 e f5 (gap) · j5→PE13.  GND sulle rail blu −, unite dal ponticello.  D8 solo LOW/Hi-Z.</text>
</svg>